PathFileType	4	(X/Y/Z)	c:/Users/goper/Files/vsCode/490R/osim_files/C06/C06_Fast_05.trc
DataRate	CameraRate	NumFrames	NumMarkers	Units                	OrigDataRate	OrigDataStartFrame	OrigNumFrames
250.00	250.00	11	36	mm	250.0	773	2061
                Frame#	Time	LPSIS			LASIS			LTH1			LTH2			LTH3			LTH4			LLFE			LMFE			LSH1			LSH2			LSH3			LSH4			LLMAL			LMMAL			LCAL			LMTP5			LTOE			LMTP1			RPSIS			RASIS			RTH1			RTH2			RTH3			RTH4			RLFE			RMFE			RSH1			RSH2			RSH3			RSH4			RLMAL			RMMAL			RCAL			RMTP1			RTOE			RMTP5		
		X1	Y1	Z1	X2	Y2	Z2	X3	Y3	Z3	X4	Y4	Z4	X5	Y5	Z5	X6	Y6	Z6	X7	Y7	Z7	X8	Y8	Z8	X9	Y9	Z9	X10	Y10	Z10	X11	Y11	Z11	X12	Y12	Z12	X13	Y13	Z13	X14	Y14	Z14	X15	Y15	Z15	X16	Y16	Z16	X17	Y17	Z17	X18	Y18	Z18	X19	Y19	Z19	X20	Y20	Z20	X21	Y21	Z21	X22	Y22	Z22	X23	Y23	Z23	X24	Y24	Z24	X25	Y25	Z25	X26	Y26	Z26	X27	Y27	Z27	X28	Y28	Z28	X29	Y29	Z29	X30	Y30	Z30	X31	Y31	Z31	X32	Y32	Z32	X33	Y33	Z33	X34	Y34	Z34	X35	Y35	Z35	X36	Y36	Z36

773	3.08800	-6.02289	958.37927	158.78204	-179.62234	919.16663	260.60666	-50.74004	736.71381	323.00955	-43.05074	674.60022	317.79825	-124.87106	721.95966	306.68137	-106.63985	663.39471	304.52872	37.24307	440.86810	277.11499	35.04124	417.92657	163.70189	166.66458	412.94580	286.42786	193.67830	378.50977	282.70209	119.89310	367.00586	293.54965	156.42149	340.73489	288.19247	351.53021	198.44081	237.43773	326.29459	208.82654	162.55167	397.49582	250.67525	193.65071	372.08023	67.14402	243.28203	322.42349	49.71968	175.77966	348.01401	68.06882	129.91580	-1.55156	956.90320	85.80703	-188.10762	942.62445	24.54027	-170.98477	742.89056	-63.39032	-206.93854	690.92523	-56.11800	-234.70108	780.36414	-43.00902	-260.97388	724.40381	-39.60099	-346.46936	461.40411	11.01134	-346.43002	483.12701	114.16780	-310.48038	379.50305	-18.36071	-316.89633	332.01868	-16.15393	-366.47092	379.01419	6.39745	-364.84543	332.59860	5.29109	-334.41721	87.32683	38.66657	-340.14468	112.22083	115.71294	-266.73929	65.33553	85.48557	-469.68738	38.30072	130.71559	-490.98007	60.48696	85.83614	-448.31137	36.06098	17.36526
774	3.09200	-12.79411	959.02802	159.06772	-186.69896	919.85712	259.64658	-59.46796	736.20471	322.29865	-51.93368	674.24426	317.57611	-133.35463	722.25952	306.08978	-115.39437	663.59894	303.84207	26.22428	439.91656	277.58295	23.67916	415.82770	164.46890	155.64304	413.27188	286.86435	183.17387	379.23758	283.06741	110.42612	366.44525	293.65677	145.77654	340.64420	288.46741	342.97110	201.41888	238.08704	316.99860	211.07672	163.05957	385.49625	255.75822	194.49139	368.32486	71.05107	243.49933	319.10092	51.61203	176.26131	343.51694	71.18994	130.44252	-8.27197	957.91681	86.07277	-194.55016	944.18225	23.64560	-178.08415	744.11206	-64.83588	-213.21037	692.18347	-57.04952	-241.28294	780.69800	-42.44235	-266.65283	724.66772	-38.86908	-349.96393	460.98578	11.02107	-350.80536	482.95898	113.94312	-313.66736	379.56100	-18.42230	-319.64337	332.04401	-16.20047	-369.65280	378.48395	6.34702	-367.60172	332.15045	5.24438	-334.78003	87.44509	38.82842	-340.57013	112.15125	115.83984	-266.78922	65.38860	85.55519	-469.89334	37.84991	130.82970	-491.24567	59.68629	86.05606	-448.37677	35.85441	17.47206
775	3.09600	-19.44343	959.73938	159.20703	-193.72005	920.73505	258.63712	-67.73161	736.00153	322.03854	-60.90689	673.86487	317.31827	-141.08391	722.89984	306.28934	-124.31420	664.05267	303.38925	14.91951	438.93271	277.95862	11.56245	414.08688	164.91103	144.46828	413.66113	287.27579	172.52486	380.05881	283.41907	99.77870	367.12927	293.53836	135.38435	340.89349	288.87259	334.21136	204.21135	238.64772	307.36667	213.15170	163.45193	372.99188	260.51770	195.37944	364.07553	75.10339	243.73225	315.49442	53.54092	176.69574	338.74844	74.25470	130.93066	-14.82426	958.96271	86.34953	-201.01524	945.75159	22.85609	-184.34914	745.51379	-65.59777	-219.30771	693.34521	-57.88235	-247.47781	782.55316	-43.46486	-272.90903	725.48212	-39.02204	-353.73822	460.59805	10.83149	-354.97751	482.64825	113.75434	-316.78806	379.59244	-18.42488	-322.12656	332.00742	-16.08776	-372.66696	377.99057	6.26600	-370.16571	331.65210	5.19873	-335.08890	87.67347	38.89036	-340.95245	112.13402	115.92708	-266.86096	65.42918	85.62069	-470.15036	37.53640	130.89174	-491.42572	59.02306	86.12988	-448.41971	35.72093	17.43501
776	3.10000	-26.07159	960.52478	159.38596	-200.61130	921.64954	257.65778	-75.61427	735.98602	322.14862	-69.78320	673.57111	317.10028	-150.22908	723.41876	304.98282	-133.28513	664.45190	302.93546	3.53889	438.01450	278.35806	-0.89997	412.02570	165.92938	133.04205	414.03806	287.60168	161.54341	380.70392	283.73810	88.92403	366.94681	294.06949	125.42612	341.46808	289.41251	324.96268	206.92986	239.15686	297.46088	215.11368	163.70406	359.87671	264.90540	196.03200	359.40842	79.34422	244.01326	311.71252	55.38984	177.16270	333.82120	77.28084	131.48984	-21.42353	959.97296	86.54155	-207.38091	947.23663	22.02537	-190.64307	746.84357	-66.41836	-224.91365	694.59717	-58.77264	-253.77812	783.47906	-43.73198	-278.84042	726.21478	-39.27504	-357.33005	460.21405	10.61180	-359.00275	482.30447	113.67696	-319.55511	379.56827	-18.28807	-324.44504	331.96548	-15.95286	-375.62222	377.55679	6.09807	-372.62720	331.10641	5.16832	-335.36069	87.73347	39.03184	-341.43903	112.16896	116.03457	-266.94238	65.44489	85.67564	-470.30862	37.42306	130.94212	-491.52686	58.63926	86.07693	-448.43677	35.55043	17.31266
777	3.10400	-32.50940	961.43365	159.38475	-207.39752	922.70746	256.81079	-83.79435	735.90790	321.87903	-78.66720	673.45190	316.88712	-157.71463	724.29474	305.33563	-142.29550	665.07898	302.48419	-8.00614	437.14319	278.77515	-13.52155	410.30606	166.68787	121.16872	414.29694	287.86435	150.09918	381.08627	283.87961	77.80260	366.37320	294.94281	114.11900	341.43207	289.60767	315.40289	209.57886	239.67534	287.26871	216.94630	163.84181	346.64511	268.92661	196.49400	354.16165	83.54117	244.32077	307.48392	57.35993	177.60382	328.46881	80.30827	131.92078	-27.83373	961.14990	86.61976	-213.70044	948.68085	21.15204	-196.58109	748.08679	-67.02061	-230.74983	695.49341	-59.29610	-259.97989	784.24255	-43.99214	-285.09537	726.82318	-39.73114	-360.72070	459.92365	10.32932	-362.50912	481.80704	113.57513	-322.02966	379.46155	-18.08655	-326.57370	331.81802	-15.69620	-378.39066	377.28009	5.61547	-374.88736	330.66592	5.07414	-335.56955	87.74797	39.13795	-341.94586	112.21479	116.13007	-266.98669	65.47878	85.69443	-470.45987	37.26009	130.87798	-491.67545	58.25332	85.94238	-448.45413	35.39413	17.21395
778	3.10800	-38.98281	962.24969	159.30247	-213.98476	923.87488	255.93288	-93.08182	735.38904	320.71747	-87.47038	673.41852	316.64703	-165.88672	725.11676	304.91684	-151.61037	665.35345	301.37936	-19.75969	436.36743	279.12640	-26.25632	408.79739	167.45909	109.84345	414.67844	288.15125	138.95311	381.91812	284.06482	66.68600	366.79401	295.16150	103.67374	342.03464	290.26614	305.32718	212.24336	239.56789	276.88074	218.64691	163.82698	333.35852	272.62524	196.68402	348.53369	87.84032	244.55670	302.88715	59.42683	178.05014	322.70230	83.09463	132.25275	-34.31616	962.21075	86.62180	-220.03221	950.07019	20.35796	-202.41501	749.37726	-67.52733	-235.85324	696.57324	-59.98450	-266.11124	784.95782	-44.32352	-290.65381	727.21515	-40.08756	-363.89560	459.48837	10.07163	-365.82004	481.35803	113.47705	-324.29834	379.32703	-17.81671	-328.50305	331.61923	-15.43611	-380.75037	376.49451	5.76670	-376.92984	330.04187	5.30170	-335.88107	87.65965	39.37833	-342.42651	112.22092	116.19022	-266.97119	65.55042	85.67690	-470.67670	37.14598	130.31482	-491.78214	57.82990	85.85629	-448.45932	35.26421	17.15082
779	3.11200	-45.18861	963.25562	159.10123	-220.50578	925.13446	255.24474	-100.35769	735.76227	320.73895	-96.64428	673.22229	315.97693	-174.10802	726.05841	304.44901	-160.55507	666.07605	301.04733	-31.54525	435.61987	279.55154	-38.97136	407.46719	168.17601	97.99852	415.02231	288.33633	127.50854	382.49011	284.24448	55.33591	366.75546	295.68204	91.92852	341.99115	290.49899	294.82111	214.93771	240.00060	266.29449	219.37383	165.48253	320.25763	275.98666	196.68748	342.48428	92.00426	244.80243	297.68600	61.57526	178.63033	316.53906	85.01704	133.51631	-40.54381	963.46820	86.52984	-226.27963	951.39636	19.59066	-208.13522	750.45721	-68.07090	-241.04735	697.42664	-60.46847	-272.07111	785.45667	-44.74609	-296.17502	727.44519	-40.40884	-366.95181	459.10522	9.80997	-368.87631	480.93591	113.48653	-326.34546	379.39517	-17.77027	-330.26465	331.40674	-15.09259	-382.93222	375.98749	5.52484	-379.02222	329.76105	4.81098	-335.76691	87.64155	39.38968	-342.27869	112.48156	116.78826	-266.96054	65.62072	85.66199	-470.77661	37.01064	130.39511	-491.86487	57.52349	85.84107	-448.49219	35.16316	17.08875
780	3.11600	-51.52999	964.25812	158.84918	-226.89456	926.42731	254.50745	-108.37890	735.96033	320.41937	-104.96277	673.55121	316.16739	-182.89375	726.98376	303.33551	-169.45775	666.87646	300.68414	-43.50461	434.98029	279.91187	-51.67582	406.33511	168.81561	86.00812	415.27612	288.54251	115.55106	382.80475	284.46381	43.59936	366.46982	296.04358	80.11303	341.76974	290.40280	284.08072	217.43527	240.34808	255.40715	220.81741	165.74393	307.24838	278.97803	196.48833	336.02502	95.99121	245.01578	292.20682	63.66870	179.10902	310.12891	86.94810	134.14745	-46.84879	964.63776	86.39284	-232.47633	952.62244	18.75829	-213.62206	751.54254	-68.41416	-246.20665	697.92169	-60.59972	-277.97971	785.90387	-45.12544	-301.66373	728.23499	-41.66632	-369.66965	458.61902	9.53375	-371.63177	480.48904	113.45821	-328.19690	379.19940	-17.46093	-331.84869	331.14413	-14.74957	-385.03732	375.46890	5.19785	-380.82355	329.29761	4.58335	-335.85907	87.66961	39.53505	-342.60159	112.42877	116.84869	-266.92569	65.69307	85.68318	-470.84512	36.91017	130.45338	-491.94330	57.28691	85.84316	-448.49850	35.06030	17.05662
781	3.12000	-57.73607	965.28925	158.48141	-233.17079	927.86633	253.99484	-116.04406	736.37396	320.39697	-113.73328	673.72083	315.97406	-190.43985	728.46802	303.94006	-178.32777	667.76715	300.43179	-55.50227	434.36441	280.21158	-64.29223	405.60364	169.24284	73.93153	415.44550	288.79022	104.00976	383.36722	284.74576	31.77361	366.42587	296.47873	68.21269	341.74060	290.78940	273.39783	219.87227	240.58775	244.57599	222.04472	165.93704	294.38058	281.66940	195.89850	329.12521	99.84718	245.09317	286.04871	65.72717	179.63104	303.14166	88.55196	135.10353	-53.09858	965.89227	86.14474	-238.71179	953.85126	18.04709	-218.82060	752.53613	-68.72458	-250.67123	698.75787	-60.99515	-283.75769	786.09650	-45.59643	-306.63446	727.90326	-42.41160	-372.21573	458.22958	9.34748	-374.13043	480.01187	113.46790	-329.80408	378.97281	-17.12174	-333.17328	330.91129	-14.37359	-386.96356	374.97028	4.94058	-382.21591	328.67883	4.45392	-335.95691	87.71866	39.70721	-342.99332	112.35651	116.97689	-266.93805	65.73228	85.72277	-470.88528	36.79013	130.51422	-492.08167	56.96973	85.77908	-448.51538	34.97783	17.02198
782	3.12400	-63.92339	966.39282	158.09099	-239.13925	929.31360	253.47914	-124.43652	736.57098	319.50891	-122.90415	673.87756	315.31436	-198.39491	729.65387	302.52161	-187.07933	668.88666	300.25778	-67.68397	433.90598	280.53549	-76.75460	405.00546	169.64247	61.70169	415.64218	289.11508	91.40059	383.45776	284.94559	19.81461	366.34943	296.91507	56.46744	341.96472	291.20984	262.92599	222.24739	240.56477	233.51363	223.04337	165.98882	281.44934	284.07166	195.05864	321.61380	103.58303	245.29691	279.36304	67.69011	180.27412	295.77307	90.21478	136.23900	-59.28589	967.19037	85.83577	-244.79095	954.97943	17.40055	-224.03256	753.44550	-69.04536	-255.16669	699.23553	-61.21144	-289.43100	786.19043	-45.99330	-311.32614	727.66864	-42.31832	-374.67703	457.87521	9.01497	-376.63321	479.56100	113.56506	-331.22003	378.73822	-16.75773	-334.39194	330.62564	-14.02254	-388.61249	374.46292	4.62822	-383.59290	328.17749	4.33217	-336.03052	87.78192	39.88658	-343.39288	112.30000	117.16709	-266.95758	65.78038	85.77644	-470.95471	36.71262	130.55971	-492.12036	56.84942	85.85416	-448.50854	34.91268	16.98746
783	3.12800	-70.13823	967.57324	157.61441	-244.88350	930.75415	253.06906	-131.94629	737.16302	319.49728	-131.22406	674.48401	315.57309	-206.55637	731.07654	302.93918	-195.85881	670.10291	300.06589	-79.81876	433.53006	280.76459	-89.12366	404.72653	169.87842	49.39384	415.70660	289.41327	79.18286	383.58722	285.22913	7.68725	366.24173	297.35977	44.37062	341.91751	291.55457	252.20923	224.43832	240.62463	222.37032	223.89523	165.97411	268.47116	286.27402	194.14041	313.53998	107.48576	245.78914	272.04214	69.59859	181.41908	287.46417	92.27192	136.90924	-65.50803	968.51410	85.41096	-250.99319	956.12036	16.68292	-229.17168	754.26959	-69.21455	-259.40585	699.70343	-61.30384	-295.23456	786.32312	-47.08230	-315.56238	727.53381	-42.72356	-376.91818	457.41666	8.77672	-378.84146	479.09912	113.56442	-332.51495	378.52576	-16.47747	-334.96667	330.51965	-14.12844	-389.96219	373.88965	4.25052	-384.88544	327.70261	4.02760	-336.12155	87.88663	40.04621	-343.79660	112.25933	117.35957	-266.58633	65.94391	85.64217	-471.00241	36.63070	130.58327	-492.14880	56.67028	85.90289	-448.51569	34.87653	16.95844
